<svg width="24" height="19" viewBox="0 0 24 19" fill="none" xmlns="http://www.w3.org/2000/svg">
<path d="M15.4643 12.825H17.681V10.6083C17.681 9.99259 18.1736 9.5 18.7893 9.5C19.4051 9.5 19.8977 9.99259 19.8977 10.6083V12.825H22.1143C22.7301 12.825 23.2227 13.3176 23.2227 13.9333C23.2227 14.5491 22.7301 15.0417 22.1143 15.0417H19.8977V17.2583C19.8977 17.8741 19.4051 18.3667 18.7893 18.3667C18.1736 18.3667 17.681 17.8741 17.681 17.2583V15.0417H15.4643C14.8486 15.0417 14.356 14.5491 14.356 13.9333C14.356 13.3176 14.8486 12.825 15.4643 12.825Z" fill="#7DB7B4"/>
<path fill-rule="evenodd" clip-rule="evenodd" d="M17.3351 12.4366V9.41457C17.3083 9.14732 17.3531 8.88655 17.3984 8.62281L17.3984 8.6228C17.4153 8.52433 17.4323 8.42545 17.4457 8.32566V8.31343C18.8339 6.88194 19.3376 5.21799 18.7725 3.32157C18.4162 2.15925 17.6668 1.29057 16.6103 0.691059C14.2393 -0.667019 11.8683 0.164957 9.82892 3.12581H9.81663C9.05496 1.42516 7.8633 0.324011 6.05738 0.0548423C4.75516 -0.140917 3.55122 0.189427 2.48241 1.00917C0.84849 2.26937 -0.34317 5.37704 2.27356 8.15438C2.2417 8.19065 2.21152 8.23028 2.18115 8.27015C2.12957 8.33789 2.07744 8.40634 2.01558 8.46025C0.602785 9.61033 -0.023756 11.1152 0.000814438 12.9138C0.00900269 14.0557 0.00627327 15.1976 0.00354385 16.3396L0.00353813 16.3419C0.00217628 16.9121 0.000814438 17.4823 0.000814438 18.0524C0.000814438 18.9945 0.000816345 18.9945 0.97134 18.9945C1.69606 18.9945 2.41942 18.9959 3.14231 18.9973L3.14399 18.9973C4.58954 19 6.03327 19.0027 7.48246 18.9945C9.15935 18.9884 9.95481 18.9792 10.7503 18.9701H10.7503C11.5458 18.9609 12.3412 18.9517 14.0181 18.9456H17.3351C17.3027 18.8486 17.3131 18.7516 17.3239 18.651C17.3295 18.5994 17.3351 18.5469 17.3351 18.4929V15.4709H14.4358C13.5882 15.4709 12.9002 14.7735 12.9125 13.9293C12.9248 13.0851 13.6496 12.4366 14.485 12.4366H16.2295H17.3351ZM9.48561 9.3064C9.20071 9.03671 8.90013 8.75217 8.61269 8.44801C8.5267 8.36237 8.50212 8.11767 8.56355 8.04426C8.86117 7.63109 9.17203 7.22451 9.48155 6.81969L9.48159 6.81965L9.48169 6.81952L9.48178 6.81939L9.48188 6.81926L9.48198 6.81913C9.59394 6.6727 9.70572 6.52651 9.81663 6.38031H9.82892C9.93755 6.54413 10.047 6.70873 10.1568 6.87392L10.157 6.87423C10.4817 7.3628 10.8099 7.85646 11.1311 8.35013C10.723 8.72363 10.3149 9.10699 9.92456 9.47365L9.92451 9.4737L9.79206 9.5981C9.69299 9.50271 9.59036 9.40556 9.48561 9.3064ZM14.2504 7.38889C12.793 7.38889 11.6115 6.20742 11.6115 4.75C11.6115 3.29258 12.793 2.11111 14.2504 2.11111C15.7078 2.11111 16.8893 3.29258 16.8893 4.75C16.8893 6.20742 15.7078 7.38889 14.2504 7.38889ZM2.74484 4.75003C2.74484 6.20745 3.92631 7.38892 5.38373 7.38892C6.84115 7.38892 8.02262 6.20745 8.02262 4.75003C8.02262 3.29261 6.84115 2.11114 5.38373 2.11114C3.92631 2.11114 2.74484 3.29261 2.74484 4.75003ZM6.33371 8.97222L10.5559 13.1944V16.8889H2.11148V13.1944C1.93556 11.963 2.11148 9.39444 6.33371 8.97222Z" fill="#7DB7B4"/>
</svg>
