<svg width="35" height="19" viewBox="0 0 35 19" fill="none" xmlns="http://www.w3.org/2000/svg">
<path d="M8.13145 8.025L15.4064 0.499999H11.6314L3.30645 9.3V0.499999H0.231445V18H3.30645V12.925L6.03145 10.125L12.0064 18H15.7314L8.13145 8.025ZM34.5533 9.225C34.5533 7.99167 34.3283 6.825 33.8783 5.725C33.4283 4.625 32.8033 3.66667 32.0033 2.85C31.2033 2.03333 30.245 1.39167 29.1283 0.924999C28.0117 0.441666 26.7783 0.2 25.4283 0.2C24.0783 0.2 22.845 0.441666 21.7283 0.924999C20.6117 1.40833 19.645 2.06667 18.8283 2.9C18.0117 3.71667 17.3783 4.675 16.9283 5.775C16.4783 6.875 16.2533 8.04167 16.2533 9.275C16.2533 10.5083 16.4783 11.675 16.9283 12.775C17.3783 13.875 18.0033 14.8333 18.8033 15.65C19.6033 16.4667 20.5617 17.1167 21.6783 17.6C22.795 18.0667 24.0283 18.3 25.3783 18.3C26.7283 18.3 27.9617 18.0583 29.0783 17.575C30.195 17.0917 31.1617 16.4417 31.9783 15.625C32.795 14.7917 33.4283 13.825 33.8783 12.725C34.3283 11.625 34.5533 10.4583 34.5533 9.225ZM31.3283 9.275C31.3283 10.125 31.1783 10.9333 30.8783 11.7C30.595 12.45 30.195 13.1083 29.6783 13.675C29.1617 14.225 28.5367 14.6667 27.8033 15C27.0867 15.3167 26.295 15.475 25.4283 15.475C24.5617 15.475 23.7617 15.3083 23.0283 14.975C22.295 14.6417 21.6617 14.1917 21.1283 13.625C20.6117 13.0583 20.2033 12.4 19.9033 11.65C19.62 10.8833 19.4783 10.075 19.4783 9.225C19.4783 8.375 19.62 7.575 19.9033 6.825C20.2033 6.05833 20.6117 5.4 21.1283 4.85C21.645 4.28333 22.2617 3.84167 22.9783 3.525C23.7117 3.19167 24.5117 3.025 25.3783 3.025C26.245 3.025 27.045 3.19167 27.7783 3.525C28.5117 3.85833 29.1367 4.30833 29.6533 4.875C30.1867 5.44167 30.595 6.10833 30.8783 6.875C31.1783 7.625 31.3283 8.425 31.3283 9.275Z" fill="#666666"/>
</svg>
