<svg width="73" height="73" viewBox="0 0 73 73" fill="none" xmlns="http://www.w3.org/2000/svg">
<mask id="path-1-inside-1_22:139" fill="white">
<path fill-rule="evenodd" clip-rule="evenodd" d="M36.5 73C56.6584 73 73 56.6584 73 36.5C73 16.3416 56.6584 0 36.5 0C16.3416 0 0 16.3416 0 36.5C0 40.296 0.579475 43.9567 1.65479 47.3983C2.99753 47.0496 4.40604 46.864 5.8579 46.864C15.0661 46.864 22.5307 54.3287 22.5307 63.5369C22.5307 65.7201 22.1111 67.8053 21.3481 69.7163C25.9633 71.8249 31.0944 73 36.5 73Z"/>
</mask>
<path fill-rule="evenodd" clip-rule="evenodd" d="M36.5 73C56.6584 73 73 56.6584 73 36.5C73 16.3416 56.6584 0 36.5 0C16.3416 0 0 16.3416 0 36.5C0 40.296 0.579475 43.9567 1.65479 47.3983C2.99753 47.0496 4.40604 46.864 5.8579 46.864C15.0661 46.864 22.5307 54.3287 22.5307 63.5369C22.5307 65.7201 22.1111 67.8053 21.3481 69.7163C25.9633 71.8249 31.0944 73 36.5 73Z" fill="#FEFFFF"/>
<path d="M1.65479 47.3983L-0.254201 47.9948C0.063911 49.0129 1.12508 49.6022 2.15752 49.3341L1.65479 47.3983ZM21.3481 69.7163L19.4907 68.9746C19.0951 69.9653 19.5467 71.0921 20.517 71.5354L21.3481 69.7163ZM71 36.5C71 55.5538 55.5538 71 36.5 71V75C57.763 75 75 57.763 75 36.5H71ZM36.5 2C55.5538 2 71 17.4462 71 36.5H75C75 15.237 57.763 -2 36.5 -2V2ZM2 36.5C2 17.4462 17.4462 2 36.5 2V-2C15.237 -2 -2 15.237 -2 36.5H2ZM3.56378 46.8019C2.5481 43.5511 2 40.0914 2 36.5H-2C-2 40.5006 -1.38915 44.3623 -0.254201 47.9948L3.56378 46.8019ZM2.15752 49.3341C3.33749 49.0277 4.57711 48.864 5.8579 48.864V44.864C4.23498 44.864 2.65757 45.0716 1.15206 45.4625L2.15752 49.3341ZM5.8579 48.864C13.9615 48.864 20.5307 55.4333 20.5307 63.5369H24.5307C24.5307 53.2242 16.1706 44.864 5.8579 44.864V48.864ZM20.5307 63.5369C20.5307 65.4619 20.1611 67.2957 19.4907 68.9746L23.2055 70.4579C24.0611 68.3149 24.5307 65.9783 24.5307 63.5369H20.5307ZM36.5 71C31.3869 71 26.5388 69.889 22.1793 67.8971L20.517 71.5354C25.3878 73.7608 30.8019 75 36.5 75V71Z" fill="#7DB7B4" mask="url(#path-1-inside-1_22:139)"/>
</svg>
